<?xml version="1.0" standalone="no"?>
<!DOCTYPE svg PUBLIC "-//W3C//DTD SVG 20010904//EN" "http://www.w3.org/TR/2001/REC-SVG-20010904/DTD/svg10.dtd">
<svg xmlns="http://www.w3.org/2000/svg" version="1.0" width="1024.000000pt" height="1024.000000pt" viewBox="0 0 1024.000000 1024.000000" preserveAspectRatio="xMidYMid meet">
<metadata>
Created by potrace 1.16, written by Peter Selinger 2001-2019
<meta name="Producer" content="Online-Convert"/></metadata>
<g transform="translate(0.000000,1024.000000) scale(0.100000,-0.100000)" fill='#000000' stroke="none">
<path fill="#e45b23" d="M5632 8506 c-369 -71 -671 -296 -837 -626 -68 -137 -106 -271 -120 -432 l-7 -78 -287 0 -287 0 -53 -26 c-33 -17 -62 -41 -78 -65 -27 -41 -34 -83 -88 -544 -21 -178 -164 -1189 -261 -1844 -68 -465 -73 -510 -63 -568 13 -76 52 -133 111 -165 l43 -23 2120 -3 c2342 -2 2175 -7 2245 61 46 44 63 90 62 167 0 36 -39 317 -87 625 -142 928 -262 1736 -296 1995 -38 301 -47 323 -149 369 -42 19 -65 21 -322 21 l-278 0 0 59 c0 32 -7 98 -15 147 -64 362 -307 673 -657 839 -153 72 -263 97 -458 101 -112 2 -188 -1 -238 -10z m393 -401 c203 -53 394 -213 490 -409 36 -73 70 -194 78 -278 l5 -48 -760 0 -760 0 6 58 c23 191 114 370 258 509 106 101 196 149 338 179 81 17 261 11 345 -11z m-1064 -1277 c57 -16 113 -69 139 -130 63 -147 -44 -308 -205 -308 -177 0 -285 173 -205 330 48 94 164 141 271 108z m1910 -16 c42 -21 62 -40 87 -82 31 -51 33 -60 30 -127 -4 -92 -37 -145 -118 -186 -48 -25 -63 -28 -122 -24 -81 5 -133 35 -175 98 -33 49 -44 149 -22 202 53 131 196 184 320 119z"/>
<path fill="#2b3a40" d="M1792 7554 c-117 -58 -162 -197 -101 -316 24 -48 54 -76 104 -99 37 -17 71 -19 420 -19 228 0 395 -4 417 -10 44 -13 83 -56 92 -102 5 -30 111 -836 231 -1763 136 -1048 177 -1348 195 -1420 34 -137 91 -237 189 -335 99 -98 184 -146 321 -183 l85 -22 2075 0 2075 0 40 22 c84 45 125 114 125 210 0 69 -24 125 -71 171 -68 66 78 62 -2186 62 -2001 0 -2055 0 -2091 19 -102 53 -121 105 -166 456 -14 105 -61 467 -106 805 -44 338 -92 703 -106 810 -114 886 -176 1322 -194 1375 -42 122 -142 238 -260 300 -122 63 -137 65 -610 65 l-426 0 -52 -26z"/>
<path fill="#2b3a40" d="M4255 3103 c-279 -37 -502 -275 -522 -556 -19 -270 152 -524 409 -608 103 -34 261 -34 368 1 144 47 274 156 345 291 47 89 65 166 65 274 0 107 -16 173 -66 275 -105 211 -369 354 -599 323z"/>
<path fill="#2b3a40" d="M6967 3099 c-125 -18 -259 -91 -351 -190 -104 -113 -156 -245 -156 -398 0 -201 95 -384 257 -495 240 -164 546 -134 754 73 126 126 174 244 174 426 -1 132 -25 213 -99 324 -123 185 -363 293 -579 260z"/>
</g>
</svg>
