<?xml version="1.0" standalone="no"?>
<!DOCTYPE svg PUBLIC "-//W3C//DTD SVG 20010904//EN" "http://www.w3.org/TR/2001/REC-SVG-20010904/DTD/svg10.dtd">
<svg xmlns="http://www.w3.org/2000/svg" version="1.0" width="1024.000000pt" height="680.000000pt" viewBox="0 0 1024.000000 680.000000" preserveAspectRatio="xMidYMid meet">
<metadata>
Created by potrace 1.16, written by Peter Selinger 2001-2019
<meta name="Producer" content="Online-Convert"/></metadata>
<g transform="translate(0.000000,680.000000) scale(0.100000,-0.100000)" fill="#ffffff" stroke="none">
<path d="M2058 4310 c-93 -24 -168 -99 -199 -202 l-21 -68 -83 0 c-59 0 -88 -4 -98 -14 -8 -8 -17 -45 -21 -83 -9 -92 -74 -589 -85 -644 -7 -39 -9 -41 -14 -19 -8 28 -49 377 -67 565 -14 140 -34 196 -82 225 -29 17 -50 20 -169 20 -151 0 -169 -7 -169 -67 0 -53 23 -63 147 -63 85 0 113 -3 123 -15 7 -8 30 -182 57 -422 39 -353 48 -415 69 -458 26 -54 73 -93 126 -103 18 -4 271 -5 561 -2 574 5 547 2 547 61 0 14 -8 33 -18 42 -17 15 -69 17 -538 17 -559 1 -543 -1 -564 54 -25 66 -68 61 542 58 304 -1 563 0 576 3 30 7 29 15 -18 332 -22 148 -47 320 -56 383 -8 63 -21 118 -27 122 -7 4 -49 8 -95 8 -57 0 -84 4 -86 13 -38 139 -77 201 -150 237 -52 25 -134 33 -188 20z m160 -116 c19 -15 45 -50 58 -78 42 -90 50 -86 -161 -86 -180 0 -185 1 -185 20 0 54 78 152 135 170 47 15 114 3 153 -26z"/>
<path d="M8042 3476 c-92 -30 -156 -114 -170 -223 -21 -161 45 -281 174 -319 122 -35 243 15 298 123 28 55 23 63 -38 63 -47 0 -56 -3 -70 -25 -23 -35 -75 -65 -112 -65 -41 0 -95 37 -116 80 -25 48 -24 142 2 195 24 50 65 75 120 75 34 0 48 -6 74 -33 17 -18 36 -41 41 -50 8 -15 18 -17 53 -11 50 8 59 22 41 66 -44 106 -179 162 -297 124z"/>
<path d="M3130 3210 l0 -270 55 0 55 0 0 178 c0 108 4 171 9 162 13 -21 108 -278 117 -312 6 -26 10 -28 55 -28 33 0 49 4 49 13 0 6 26 86 57 177 l58 165 6 -115 c4 -63 7 -143 8 -177 l1 -63 53 0 54 0 -4 178 c-2 97 -5 218 -6 267 l-2 90 -71 3 -71 3 -17 -41 c-9 -23 -37 -98 -62 -168 -25 -70 -49 -131 -54 -135 -4 -5 -31 54 -59 130 -29 76 -58 154 -65 173 l-14 35 -76 3 -76 3 0 -271z"/>
<path d="M3965 3468 c-87 -250 -140 -400 -160 -453 -14 -37 -25 -69 -25 -72 0 -2 30 -3 67 -1 l66 3 15 53 15 52 93 0 93 0 17 -55 18 -55 69 0 c61 0 69 2 64 18 -5 15 -136 388 -170 482 l-13 35 -72 3 c-52 2 -74 -1 -77 -10z"/>
<path d="M4370 3210 l0 -270 63 0 62 0 -3 96 -3 95 47 -3 48 -3 41 -92 40 -93 73 0 74 0 -56 106 -57 106 35 34 c67 65 71 166 9 235 -46 50 -80 59 -240 59 l-133 0 0 -270z m269 156 c28 -26 28 -89 1 -116 -16 -16 -33 -20 -85 -20 l-65 0 0 81 0 81 64 -4 c45 -3 71 -10 85 -22z"/>
<path d="M4890 3210 l0 -270 60 0 60 0 0 121 c0 92 3 120 13 117 10 -4 103 -118 172 -212 19 -26 24 -27 87 -24 l66 3 -104 147 -105 147 95 113 c53 62 96 116 96 121 0 4 -31 7 -69 7 l-69 0 -82 -105 c-46 -58 -87 -105 -91 -105 -5 0 -9 47 -9 105 l0 105 -60 0 -60 0 0 -270z"/>
<path d="M5427 3473 c-4 -3 -7 -125 -7 -270 l0 -263 180 0 180 0 0 50 0 50 -120 0 -120 0 0 59 c0 70 1 71 133 71 l87 0 0 45 0 45 -110 0 -110 0 0 60 0 60 120 0 120 0 0 50 0 50 -173 0 c-96 0 -177 -3 -180 -7z"/>
<path d="M5870 3435 c0 -25 -1 -48 -2 -52 -2 -5 14 -6 35 -5 21 2 55 1 75 -3 l37 -6 -3 -214 -3 -215 61 0 60 0 0 215 0 214 78 3 77 3 3 53 3 52 -210 0 -211 0 0 -45z"/>
<path d="M6370 3211 l0 -271 60 0 60 0 0 90 0 90 63 0 c112 0 184 36 213 107 23 53 18 133 -10 174 -41 61 -81 73 -243 77 l-143 4 0 -271z m265 144 c31 -30 33 -82 5 -113 -17 -18 -32 -22 -85 -22 l-65 0 0 80 0 80 60 0 c51 0 65 -4 85 -25z"/>
<path d="M6870 3210 l0 -270 185 0 185 0 0 50 0 50 -125 0 -125 0 0 220 0 220 -60 0 -60 0 0 -270z"/>
<path d="M7485 3470 c-3 -5 -46 -126 -95 -270 l-89 -260 68 0 68 0 14 53 14 52 91 3 91 3 23 -56 22 -55 64 0 c35 0 64 3 64 7 0 3 -41 119 -90 257 -50 138 -93 257 -95 264 -5 15 -141 17 -150 2z"/>
<path d="M8440 3210 l0 -270 185 0 185 0 0 50 0 50 -124 0 -124 0 -4 48 c-3 26 -3 53 0 60 3 8 35 12 113 12 l109 0 0 50 0 50 -110 0 -110 0 0 60 0 60 120 0 120 0 0 50 0 50 -180 0 -180 0 0 -270z"/>
<path d="M1652 2880 c-93 -57 -95 -197 -3 -245 42 -21 119 -19 157 4 62 38 81 134 39 197 -40 61 -130 82 -193 44z"/>
<path d="M2360 2882 c-74 -37 -102 -131 -60 -199 28 -47 72 -66 138 -61 48 4 60 10 88 41 45 49 52 94 24 153 -36 74 -118 103 -190 66z"/>
</g>
</svg>
